<svg width="414" height="150" viewBox="0 0 414 150" fill="none" xmlns="http://www.w3.org/2000/svg">
<path d="M51.9877 120V57H64.3477V69.96L62.1877 71.4C62.9877 68.6 64.5477 66.04 66.8677 63.72C69.1877 61.32 71.9477 59.4 75.1477 57.96C78.3477 56.44 81.6277 55.68 84.9877 55.68C89.7877 55.68 93.7877 56.64 96.9877 58.56C100.188 60.4 102.588 63.24 104.188 67.08C105.788 70.92 106.588 75.76 106.588 81.6V120H94.2277V82.44C94.2277 78.84 93.7477 75.88 92.7877 73.56C91.8277 71.16 90.3477 69.44 88.3477 68.4C86.3477 67.28 83.8677 66.8 80.9077 66.96C78.5077 66.96 76.3077 67.36 74.3077 68.16C72.3077 68.88 70.5477 69.92 69.0277 71.28C67.5877 72.64 66.4277 74.24 65.5477 76.08C64.7477 77.84 64.3477 79.76 64.3477 81.84V120H58.2277C57.1877 120 56.1477 120 55.1077 120C54.0677 120 53.0277 120 51.9877 120ZM151.675 121.2C145.515 121.2 139.995 119.8 135.115 117C130.315 114.12 126.515 110.24 123.715 105.36C120.915 100.4 119.515 94.76 119.515 88.44C119.515 82.12 120.915 76.52 123.715 71.64C126.515 66.68 130.315 62.8 135.115 60C139.995 57.12 145.515 55.68 151.675 55.68C157.755 55.68 163.195 57.12 167.995 60C172.875 62.8 176.715 66.68 179.515 71.64C182.315 76.52 183.715 82.12 183.715 88.44C183.715 94.76 182.315 100.4 179.515 105.36C176.715 110.24 172.875 114.12 167.995 117C163.195 119.8 157.755 121.2 151.675 121.2ZM151.675 109.92C155.435 109.92 158.795 109 161.755 107.16C164.715 105.24 167.035 102.68 168.715 99.48C170.395 96.2 171.195 92.52 171.115 88.44C171.195 84.28 170.395 80.6 168.715 77.4C167.035 74.12 164.715 71.56 161.755 69.72C158.795 67.88 155.435 66.96 151.675 66.96C147.915 66.96 144.515 67.92 141.475 69.84C138.515 71.68 136.195 74.24 134.515 77.52C132.835 80.72 132.035 84.36 132.115 88.44C132.035 92.52 132.835 96.2 134.515 99.48C136.195 102.68 138.515 105.24 141.475 107.16C144.515 109 147.915 109.92 151.675 109.92ZM223.463 121.2C217.703 121.2 212.543 119.8 207.983 117C203.503 114.12 199.943 110.24 197.303 105.36C194.663 100.4 193.343 94.76 193.343 88.44C193.343 82.12 194.623 76.52 197.183 71.64C199.823 66.68 203.383 62.8 207.863 60C212.343 57.12 217.423 55.68 223.103 55.68C226.223 55.68 229.223 56.2 232.103 57.24C235.063 58.2 237.703 59.56 240.023 61.32C242.343 63 244.143 64.88 245.423 66.96C246.783 68.96 247.463 71 247.463 73.08L243.863 73.32V31.2H256.223V120H243.863V105H246.263C246.263 106.92 245.623 108.84 244.343 110.76C243.063 112.6 241.343 114.32 239.183 115.92C237.103 117.52 234.663 118.8 231.863 119.76C229.143 120.72 226.343 121.2 223.463 121.2ZM225.143 110.52C228.903 110.52 232.223 109.56 235.103 107.64C237.983 105.72 240.223 103.12 241.823 99.84C243.503 96.48 244.343 92.68 244.343 88.44C244.343 84.2 243.503 80.44 241.823 77.16C240.223 73.8 237.983 71.16 235.103 69.24C232.223 67.32 228.903 66.36 225.143 66.36C221.383 66.36 218.063 67.32 215.183 69.24C212.303 71.16 210.023 73.8 208.343 77.16C206.743 80.44 205.943 84.2 205.943 88.44C205.943 92.68 206.743 96.48 208.343 99.84C210.023 103.12 212.303 105.72 215.183 107.64C218.063 109.56 221.383 110.52 225.143 110.52ZM297.478 121.2C292.278 121.2 287.518 119.76 283.198 116.88C278.958 114 275.558 110.08 272.998 105.12C270.438 100.16 269.158 94.56 269.158 88.32C269.158 82 270.438 76.4 272.998 71.52C275.638 66.56 279.158 62.68 283.558 59.88C288.038 57.08 293.038 55.68 298.558 55.68C301.838 55.68 304.838 56.16 307.558 57.12C310.278 58.08 312.638 59.44 314.638 61.2C316.718 62.88 318.398 64.84 319.678 67.08C321.038 69.32 321.878 71.72 322.198 74.28L319.438 73.32V57H331.918V120H319.438V105L322.318 104.16C321.838 106.32 320.838 108.44 319.318 110.52C317.878 112.52 315.998 114.32 313.678 115.92C311.438 117.52 308.918 118.8 306.118 119.76C303.398 120.72 300.518 121.2 297.478 121.2ZM300.718 109.8C304.478 109.8 307.798 108.88 310.678 107.04C313.558 105.2 315.798 102.68 317.398 99.48C319.078 96.2 319.918 92.48 319.918 88.32C319.918 84.24 319.078 80.6 317.398 77.4C315.798 74.2 313.558 71.68 310.678 69.84C307.798 68 304.478 67.08 300.718 67.08C297.038 67.08 293.758 68 290.878 69.84C288.078 71.68 285.838 74.2 284.158 77.4C282.558 80.6 281.758 84.24 281.758 88.32C281.758 92.48 282.558 96.2 284.158 99.48C285.838 102.68 288.078 105.2 290.878 107.04C293.758 108.88 297.038 109.8 300.718 109.8ZM349.415 120V31.2H361.775V120H349.415Z" fill="black"/>
<circle cx="397.5" cy="86.5" r="16.5" fill="black"/>
<circle cx="16.5" cy="86.5" r="16.5" fill="black"/>
</svg>
