<svg width="606" height="403" viewBox="0 0 606 403" fill="none" xmlns="http://www.w3.org/2000/svg">
<path d="M94.0775 371V266H111.628L172.528 348.05L169.228 348.65C168.828 345.85 168.478 343 168.178 340.1C167.878 337.1 167.578 334 167.278 330.8C167.078 327.6 166.878 324.25 166.678 320.75C166.578 317.25 166.478 313.6 166.378 309.8C166.278 305.9 166.228 301.8 166.228 297.5V266H185.578V371H167.728L106.528 290.15L110.428 289.1C110.928 294.7 111.328 299.5 111.628 303.5C112.028 307.4 112.328 310.8 112.528 313.7C112.728 316.5 112.878 318.85 112.978 320.75C113.178 322.65 113.278 324.4 113.278 326C113.378 327.5 113.428 328.95 113.428 330.35V371H94.0775ZM246.605 372.5C238.705 372.5 231.655 370.75 225.455 367.25C219.255 363.65 214.355 358.75 210.755 352.55C207.155 346.35 205.355 339.3 205.355 331.4C205.355 323.5 207.155 316.45 210.755 310.25C214.355 304.05 219.255 299.2 225.455 295.7C231.655 292.1 238.705 290.3 246.605 290.3C254.405 290.3 261.405 292.1 267.605 295.7C273.805 299.2 278.655 304.05 282.155 310.25C285.755 316.45 287.555 323.5 287.555 331.4C287.555 339.3 285.755 346.35 282.155 352.55C278.655 358.75 273.805 363.65 267.605 367.25C261.405 370.75 254.405 372.5 246.605 372.5ZM246.605 356.15C250.905 356.15 254.705 355.05 258.005 352.85C261.405 350.65 264.055 347.7 265.955 344C267.955 340.3 268.905 336.1 268.805 331.4C268.905 326.6 267.955 322.35 265.955 318.65C264.055 314.95 261.405 312.05 258.005 309.95C254.705 307.75 250.905 306.65 246.605 306.65C242.305 306.65 238.405 307.75 234.905 309.95C231.505 312.05 228.855 315 226.955 318.8C225.055 322.5 224.105 326.7 224.105 331.4C224.105 336.1 225.055 340.3 226.955 344C228.855 347.7 231.505 350.65 234.905 352.85C238.405 355.05 242.305 356.15 246.605 356.15ZM335.859 372.5C328.859 372.5 322.559 370.75 316.959 367.25C311.459 363.65 307.059 358.8 303.759 352.7C300.559 346.5 298.959 339.4 298.959 331.4C298.959 323.5 300.559 316.45 303.759 310.25C306.959 304.05 311.309 299.2 316.809 295.7C322.409 292.1 328.709 290.3 335.709 290.3C339.509 290.3 343.159 290.9 346.659 292.1C350.259 293.3 353.459 294.95 356.259 297.05C359.059 299.05 361.259 301.3 362.859 303.8C364.559 306.3 365.509 308.9 365.709 311.6L360.759 312.2V260H379.209V371H361.359L360.909 352.4L364.509 352.7C364.409 355.2 363.509 357.6 361.809 359.9C360.209 362.2 358.109 364.3 355.509 366.2C352.909 368.1 349.859 369.65 346.359 370.85C342.959 371.95 339.459 372.5 335.859 372.5ZM339.459 356.9C343.759 356.9 347.559 355.8 350.859 353.6C354.159 351.4 356.709 348.4 358.509 344.6C360.409 340.8 361.359 336.4 361.359 331.4C361.359 326.5 360.409 322.15 358.509 318.35C356.709 314.45 354.159 311.45 350.859 309.35C347.559 307.15 343.759 306.05 339.459 306.05C335.159 306.05 331.359 307.15 328.059 309.35C324.759 311.45 322.159 314.45 320.259 318.35C318.459 322.15 317.559 326.5 317.559 331.4C317.559 336.4 318.459 340.8 320.259 344.6C322.159 348.4 324.759 351.4 328.059 353.6C331.359 355.8 335.159 356.9 339.459 356.9ZM430.003 372.5C423.503 372.5 417.603 370.7 412.303 367.1C407.003 363.5 402.753 358.6 399.553 352.4C396.353 346.2 394.753 339.15 394.753 331.25C394.753 323.35 396.353 316.3 399.553 310.1C402.753 303.9 407.103 299.05 412.603 295.55C418.103 292.05 424.303 290.3 431.203 290.3C435.203 290.3 438.853 290.9 442.153 292.1C445.453 293.2 448.353 294.8 450.853 296.9C453.353 299 455.403 301.4 457.003 304.1C458.703 306.8 459.853 309.7 460.453 312.8L456.403 311.75V291.95H475.003V371H456.253V352.1L460.603 351.35C459.903 354.05 458.603 356.7 456.703 359.3C454.903 361.8 452.603 364.05 449.803 366.05C447.103 367.95 444.053 369.5 440.653 370.7C437.353 371.9 433.803 372.5 430.003 372.5ZM435.103 356.15C439.403 356.15 443.203 355.1 446.503 353C449.803 350.9 452.353 348 454.153 344.3C456.053 340.5 457.003 336.15 457.003 331.25C457.003 326.45 456.053 322.2 454.153 318.5C452.353 314.8 449.803 311.9 446.503 309.8C443.203 307.7 439.403 306.65 435.103 306.65C430.803 306.65 427.003 307.7 423.703 309.8C420.503 311.9 418.003 314.8 416.203 318.5C414.403 322.2 413.503 326.45 413.503 331.25C413.503 336.15 414.403 340.5 416.203 344.3C418.003 348 420.503 350.9 423.703 353C427.003 355.1 430.803 356.15 435.103 356.15ZM496.543 371V260H515.143V371H496.543Z" fill="white"/>
<path d="M119 113L220 113" stroke="#6581FF" stroke-width="25" stroke-linecap="round"/>
<rect x="202.5" y="12.5" width="202" height="202" rx="41.5" stroke="#6581FF" stroke-width="25"/>
<circle cx="303" cy="113" r="70.5" stroke="#6581FF" stroke-width="25"/>
</svg>
